<?xml version="1.0" encoding="UTF-8" standalone="no" ?>
<!DOCTYPE svg PUBLIC "-//W3C//DTD SVG 1.1//EN" "http://www.w3.org/Graphics/SVG/1.1/DTD/svg11.dtd">
<svg xmlns="http://www.w3.org/2000/svg" xmlns:xlink="http://www.w3.org/1999/xlink" version="1.1" width="720" height="720" viewBox="0 0 720 720" xml:space="preserve">
<desc>Created with Fabric.js 4.6.0</desc>
<defs>
</defs>
<g transform="matrix(3.96 0 0 3.96 360 360)" id="2j2Q9QhFCU2uyCbqqbgV6"  >
<path style="stroke: rgb(255,255,255); stroke-width: 50; stroke-dasharray: none; stroke-linecap: butt; stroke-dashoffset: 0; stroke-linejoin: miter; stroke-miterlimit: 4; fill: none; fill-rule: nonzero; opacity: 1;" vector-effect="non-scaling-stroke"  transform=" translate(0, 0)" d="M -73.52941 -42.33352 C -73.52941 -59.562529999999995 -59.56254 -73.52941 -42.33352 -73.52941 L 42.33353 -73.52941 L 42.33353 -73.52941 C 59.56254 -73.52941 73.52942 -59.56254 73.52942 -42.33352 L 73.52942 42.33353 L 73.52942 42.33353 C 73.52942 59.56254 59.56255 73.52942 42.33353 73.52942 L -42.33352 73.52942 L -42.33352 73.52942 C -59.562529999999995 73.52942 -73.52941 59.56255 -73.52941 42.33353 z" stroke-linecap="round" />
</g>
<g transform="matrix(3.96 0 0 2.92 360.15 436.81)" id="QWLHNTDKZGvNA8Rk-nIW5"  >
<path style="stroke: rgb(255,255,255); stroke-width: 50; stroke-dasharray: none; stroke-linecap: butt; stroke-dashoffset: 0; stroke-linejoin: miter; stroke-miterlimit: 4; fill: none; fill-rule: nonzero; opacity: 1;" vector-effect="non-scaling-stroke"  transform=" translate(0, 0)" d="M -73.52941 -31.15471 C -73.52941 -54.55761 -59.555409999999995 -73.52942 -42.31762 -73.52942 L 42.31762 -73.52942 L 42.31762 -73.52942 C 59.55542 -73.52942 73.52941 -54.55762 73.52941 -31.15471 L 73.52941 31.1547 L 73.52941 31.1547 C 73.52941 54.557599999999994 59.555409999999995 73.52941 42.31762 73.52941 L -42.31762 73.52941 L -42.31762 73.52941 C -59.55542 73.52941 -73.52941 54.55761 -73.52941 31.1547 z" stroke-linecap="round" />
</g>
<g transform="matrix(0 3.96 -2.91 0 437.1 360.15)" id="SXe9O9VH66H_jCC4bLJ2l"  >
<path style="stroke: rgb(255,255,255); stroke-width: 50; stroke-dasharray: none; stroke-linecap: butt; stroke-dashoffset: 0; stroke-linejoin: miter; stroke-miterlimit: 4; fill: none; fill-rule: nonzero; opacity: 1;" vector-effect="non-scaling-stroke"  transform=" translate(0, 0)" d="M -73.52941 -31.09646 C -73.52941 -42.35038 -70.24103 -53.143370000000004 -64.38768999999999 -61.10109 C -58.53433999999999 -69.05881 -50.595499999999994 -73.52941 -42.31761999999999 -73.52941 L 42.317620000000005 -73.52941 L 42.317620000000005 -73.52941 C 59.555420000000005 -73.52941 73.52941000000001 -54.531530000000004 73.52941000000001 -31.09646 L 73.52941000000001 31.09646 L 73.52941000000001 31.09646 C 73.52941000000001 54.531530000000004 59.55541000000001 73.52941 42.31762000000001 73.52941 L -42.317619999999984 73.52941 L -42.317619999999984 73.52941 C -50.59549999999999 73.52941 -58.534339999999986 69.05881 -64.38768999999999 61.10109 C -70.24104 53.14337 -73.52940999999998 42.35038 -73.52940999999998 31.09646 z" stroke-linecap="round" />
</g>
<g transform="matrix(0 3.96 -2.91 0 282.9 360.15)" id="48m6caRYYPgt151XBO6bD"  >
<path style="stroke: rgb(255,255,255); stroke-width: 50; stroke-dasharray: none; stroke-linecap: butt; stroke-dashoffset: 0; stroke-linejoin: miter; stroke-miterlimit: 4; fill: none; fill-rule: nonzero; opacity: 1;" vector-effect="non-scaling-stroke"  transform=" translate(0, 0)" d="M -73.52941 -31.09646 C -73.52941 -54.531530000000004 -59.555409999999995 -73.52941 -42.31762 -73.52941 L 42.31762 -73.52941 L 42.31762 -73.52941 C 59.55542 -73.52941 73.52941 -54.531530000000004 73.52941 -31.09646 L 73.52941 31.09646 L 73.52941 31.09646 C 73.52941 54.531530000000004 59.555409999999995 73.52941 42.31762 73.52941 L -42.31762 73.52941 L -42.31762 73.52941 C -59.55542 73.52941 -73.52941 54.531530000000004 -73.52941 31.09646 z" stroke-linecap="round" />
</g>
<g transform="matrix(3.96 0 0 2.91 359.85 282.9)" id="0kyUplypyBAjmPZL2XqQQ"  >
<path style="stroke: rgb(255,255,255); stroke-width: 50; stroke-dasharray: none; stroke-linecap: butt; stroke-dashoffset: 0; stroke-linejoin: miter; stroke-miterlimit: 4; fill: none; fill-rule: nonzero; opacity: 1;" vector-effect="non-scaling-stroke"  transform=" translate(0, 0)" d="M -73.52941 -31.09646 C -73.52941 -54.531530000000004 -59.555409999999995 -73.52941 -42.31762 -73.52941 L 42.31762 -73.52941 L 42.31762 -73.52941 C 59.55542 -73.52941 73.52941 -54.531530000000004 73.52941 -31.09646 L 73.52941 31.09646 L 73.52941 31.09646 C 73.52941 54.531530000000004 59.555409999999995 73.52941 42.31762 73.52941 L -42.31762 73.52941 L -42.31762 73.52941 C -59.55542 73.52941 -73.52941 54.531530000000004 -73.52941 31.09646 z" stroke-linecap="round" />
</g>
</svg>